<?xml version="1.0" standalone="no"?>
<!DOCTYPE svg PUBLIC "-//W3C//DTD SVG 20010904//EN"
 "http://www.w3.org/TR/2001/REC-SVG-20010904/DTD/svg10.dtd">
<svg version="1.0" xmlns="http://www.w3.org/2000/svg"
 width="436.000000pt" height="275.000000pt" viewBox="0 0 436.000000 275.000000"
 preserveAspectRatio="xMidYMid meet">
<metadata>
Created by potrace 1.16, written by Peter Selinger 2001-2019
</metadata>
<g transform="translate(0.000000,275.000000) scale(0.100000,-0.100000)"
fill="#000000" stroke="none">
<path d="M1174 2561 c-164 -26 -254 -125 -254 -281 0 -189 96 -387 294 -610
32 -36 61 -66 66 -68 4 -1 6 42 4 97 -3 100 -3 100 -58 178 -138 196 -188 377
-135 493 27 59 53 86 114 118 68 35 195 42 302 17 54 -13 77 -15 85 -7 35 35
-286 83 -418 63z"/>
<path d="M1305 2435 c-27 -8 -53 -14 -57 -15 -15 0 -89 -74 -102 -99 -22 -44
-27 -99 -15 -161 20 -102 61 -128 43 -27 -14 82 -7 114 34 155 47 47 102 64
210 63 157 -1 337 -49 514 -137 37 -19 70 -34 73 -34 3 0 5 21 5 46 0 45 0 45
-92 89 -247 116 -470 159 -613 120z"/>
<path d="M1390 1796 c0 -356 0 -356 130 -356 130 0 130 0 130 85 0 85 0 85
203 85 474 1 527 26 535 245 5 120 -8 174 -51 222 -57 61 -89 65 -544 70 -403
5 -403 5 -403 -351z m679 165 c24 -5 47 -15 52 -22 5 -8 8 -39 7 -69 -4 -78
-8 -80 -265 -80 -213 0 -213 0 -213 83 0 46 3 87 7 90 9 10 360 8 412 -2z"/>
<path d="M2520 1819 c0 -52 5 -70 39 -128 79 -135 112 -304 76 -396 -35 -93
-146 -138 -283 -116 -72 12 -96 10 -76 -8 20 -18 83 -32 164 -38 146 -10 269
36 311 117 50 92 -6 330 -113 485 -19 28 -49 71 -67 98 -18 26 -37 47 -42 47
-5 0 -9 -27 -9 -61z"/>
<path d="M2760 1603 c0 -5 14 -42 32 -83 23 -54 32 -96 36 -150 6 -102 -9
-152 -63 -205 -58 -58 -127 -80 -255 -79 -105 1 -175 13 -295 51 -153 49 -412
189 -493 266 -19 19 -35 27 -40 21 -5 -5 -7 -41 -4 -79 4 -71 4 -71 98 -130
123 -78 300 -166 411 -205 119 -42 127 -53 33 -46 -41 3 -122 8 -180 11 -323
18 -593 70 -552 106 14 13 130 29 250 36 67 3 122 10 122 14 0 38 -374 11
-470 -34 -38 -19 -37 -50 3 -69 133 -64 616 -106 1017 -90 294 12 329 20 405
97 88 87 106 199 59 361 -27 93 -80 205 -101 212 -7 2 -13 0 -13 -5z"/>
<path d="M2015 1310 c3 -5 8 -10 11 -10 2 0 4 5 4 10 0 6 -5 10 -11 10 -5 0
-7 -4 -4 -10z"/>
<path d="M224 571 c-2 -2 -4 -116 -4 -253 0 -248 0 -248 80 -248 80 0 80 0 80
59 0 59 0 59 173 63 195 5 228 14 253 73 22 54 19 202 -6 242 -34 56 -43 58
-318 63 -140 3 -256 3 -258 1z m436 -150 c15 -29 12 -62 -7 -83 -14 -16 -33
-18 -145 -18 -128 0 -128 0 -128 60 0 60 0 60 135 60 123 0 135 -2 145 -19z"/>
<path d="M992 570 c-111 -17 -127 -51 -126 -260 0 -242 4 -244 344 -244 337 0
335 -2 335 254 0 250 -2 252 -300 256 -110 2 -224 -1 -253 -6z m336 -129 c24
-5 48 -13 54 -19 14 -14 22 -130 11 -172 -13 -51 -56 -63 -210 -58 -158 5
-163 9 -163 122 0 101 13 123 73 129 81 7 192 6 235 -2z"/>
<path d="M1614 571 c-2 -2 -4 -116 -4 -253 0 -248 0 -248 282 -246 282 3 282
3 281 58 -1 55 -1 55 -201 58 -189 2 -200 3 -205 22 -3 11 -3 29 0 40 5 19 14
20 195 20 189 0 189 0 186 56 -3 55 -3 55 -188 57 -185 2 -185 2 -188 35 -3
32 -3 32 198 32 201 0 201 0 198 60 -3 61 -3 61 -276 63 -151 1 -276 0 -278
-2z"/>
<path d="M2224 571 c-2 -2 -4 -116 -4 -253 0 -248 0 -248 80 -248 81 0 81 0
74 35 -3 19 -3 46 0 59 6 24 6 24 178 28 196 5 229 14 254 73 18 45 18 185 0
230 -28 66 -41 69 -324 75 -139 3 -256 3 -258 1z m440 -164 c8 -21 7 -35 -5
-55 -15 -27 -15 -27 -144 -30 -140 -3 -145 -1 -145 55 0 64 -1 64 148 61 137
-3 137 -3 146 -31z"/>
<path d="M2961 570 c-24 -5 -50 -15 -59 -22 -41 -35 -57 -161 -26 -219 23 -46
61 -56 244 -64 171 -8 200 -14 200 -43 0 -37 -20 -42 -156 -42 -133 0 -133 0
-154 30 -20 28 -25 30 -91 30 -69 0 -69 0 -69 -35 0 -59 25 -104 67 -122 31
-14 76 -17 248 -17 185 -1 214 1 243 17 47 26 66 75 59 160 -8 117 -26 126
-260 141 -149 9 -182 14 -190 28 -8 12 -7 21 2 32 11 13 36 16 137 16 121 0
124 0 140 -25 16 -24 21 -26 88 -23 71 3 71 3 68 -38 -9 109 -40 123 -272 127
-96 1 -195 -2 -219 -7z"/>
<path d="M3730 562 c0 -7 -164 -319 -231 -439 -29 -53 -29 -53 61 -53 90 0 90
0 110 40 21 40 21 40 188 38 167 -3 167 -3 187 -40 20 -38 20 -38 108 -38 48
0 87 2 87 5 0 2 -29 57 -64 122 -34 65 -93 175 -130 246 -67 127 -67 127 -192
127 -68 0 -124 -4 -124 -8z m187 -197 c23 -44 42 -83 43 -87 0 -5 -45 -8 -100
-8 -61 0 -100 4 -100 10 0 6 18 47 40 91 30 59 45 79 58 77 10 -2 35 -38 59
-83z"/>
</g>
</svg>
